/* XPM */
static char *_b9c416298ee43699d1135c5106ad283IYrdWt1Me6Agzndq[] = {
/* columns rows colors chars-per-pixel */
"40 40 223 2 ",
"   c #1C9F59",
".  c #2C9D55",
"X  c #2F9E5C",
"o  c #279A55",
"O  c #379E57",
"+  c #3A965A",
"@  c #349B5C",
"#  c #399C59",
"$  c #37965C",
"%  c #1AA753",
"&  c #1EAC56",
"*  c #1EAC5A",
"=  c #24A44F",
"-  c #24A456",
";  c #2AA656",
":  c #24AA56",
">  c #2AA957",
",  c #26A55A",
"<  c #2BA55B",
"1  c #25AA5A",
"2  c #29A95A",
"3  c #31A657",
"4  c #30AA57",
"5  c #32A45C",
"6  c #3BA35E",
"7  c #33AC5D",
"8  c #38AB5E",
"9  c #2AB057",
"0  c #25B35B",
"q  c #2DB65E",
"w  c #34B15E",
"e  c #328E65",
"r  c #2E9E63",
"t  c #3C9563",
"y  c #359D62",
"u  c #3B9C64",
"i  c #369B69",
"p  c #3B9B6C",
"a  c #379569",
"s  c #389D71",
"d  c #2DA561",
"f  c #2CAC62",
"g  c #25A962",
"h  c #33A462",
"j  c #3AA464",
"k  c #33AB63",
"l  c #3AAE62",
"z  c #35A369",
"x  c #3CA469",
"c  c #33AE69",
"v  c #3EAA6C",
"b  c #27B263",
"n  c #2DB263",
"m  c #2DB268",
"M  c #34B263",
"N  c #38B967",
"B  c #3AB169",
"V  c #3DA274",
"C  c #409C5E",
"Z  c #418F65",
"A  c #528B68",
"S  c #429B64",
"D  c #43936D",
"F  c #449B6A",
"G  c #4B9668",
"H  c #4E8E74",
"J  c #479772",
"K  c #4C9B71",
"L  c #479E73",
"P  c #569E78",
"I  c #599D75",
"U  c #43A165",
"Y  c #41A36B",
"T  c #45AD6F",
"R  c #49AD6F",
"E  c #48A767",
"W  c #49A177",
"Q  c #47A37A",
"!  c #54A374",
"~  c #57AC73",
"^  c #59A27C",
"/  c #56AA79",
"(  c #5FAC7E",
")  c #4EB170",
"_  c #4EB07D",
"`  c #54BA7D",
"'  c #58B47C",
"]  c #69AD7C",
"[  c #61B57A",
"{  c #6A9985",
"}  c #55AB84",
"|  c #59B181",
" . c #66A283",
".. c #6CAC87",
"X. c #69A78E",
"o. c #65AB86",
"O. c #72AF8D",
"+. c #66B686",
"@. c #6CB186",
"#. c #68BC86",
"$. c #6EB68D",
"%. c #6BBB8B",
"&. c #65BC85",
"*. c #73B48D",
"=. c #7AB28B",
"-. c #73BA8D",
";. c #7ABA8E",
":. c #67BE92",
">. c #74B691",
",. c #79B491",
"<. c #75BB93",
"1. c #7ABC93",
"2. c #7DB69B",
"3. c #7DBC9B",
"4. c #6AC18B",
"5. c #72C28D",
"6. c #6AD48C",
"7. c #6DC497",
"8. c #73C29A",
"9. c #78C194",
"0. c #75D097",
"q. c #7AD79E",
"w. c #74D89A",
"e. c #85B79E",
"r. c #83B494",
"t. c #80BCA3",
"y. c #85C89E",
"u. c #84D89D",
"i. c #89CCA1",
"p. c #87C7A5",
"a. c #92CAA4",
"s. c #94CDA8",
"d. c #97CAAB",
"f. c #8CD2A4",
"g. c #82DCA3",
"h. c #88D7A8",
"j. c #8DDEAC",
"k. c #85D7A6",
"l. c #95DEA7",
"z. c #95D2AE",
"x. c #99D4AC",
"c. c #97DCAF",
"v. c #95D2A6",
"b. c #95DCB7",
"n. c #99D6B5",
"m. c #B1CAB5",
"M. c #A4D4BF",
"N. c #A2D3B6",
"B. c #9FEABF",
"V. c #9CE6B3",
"C. c #9CF5BF",
"Z. c #A0ECBD",
"A. c #A0DFC4",
"S. c #97E1C0",
"D. c #ACEBC7",
"F. c #A7EFCA",
"G. c #ABECC9",
"H. c #ABE8C1",
"J. c #B2EBC4",
"K. c #BBE8C7",
"L. c #B2EECB",
"P. c #BAE4CC",
"I. c #A4F7C3",
"U. c #B2F1C6",
"Y. c #B1F5CA",
"T. c #BBF2D3",
"R. c #BCF7D9",
"E. c #B7E8D3",
"W. c #BFFFE1",
"Q. c #C2EED3",
"!. c #C5FFD7",
"~. c #CBF8D7",
"^. c #C7F5D8",
"/. c #C2FDDB",
"(. c #CCFFDE",
"). c #C6F5D7",
"_. c #D0F0D8",
"`. c #D4FED6",
"'. c #D3EDE4",
"]. c #CAFFE2",
"[. c #CFF8E8",
"{. c #D3FFE4",
"}. c #DAFEE4",
"|. c #D5FFEA",
" X c #DCFFEC",
".X c #DAF5E2",
"XX c #DBFFF1",
"oX c #EAFFE5",
"OX c #E4FFED",
"+X c #ECFDED",
"@X c #F3FDEE",
"#X c #FEF8EC",
"$X c #E4FFF2",
"%X c #ECFEF3",
"&X c #E6FFFA",
"*X c #ECFFFB",
"=X c #EDF6F5",
"-X c #F3F7F6",
";X c #F2FFF2",
":X c #F2FEF6",
">X c #F4FEF4",
",X c #F9FEF6",
"<X c #FBFDF5",
"1X c #FDF5FA",
"2X c #F1FFF9",
"3X c #F5FFF8",
"4X c #F6FFFA",
"5X c #F5FFFE",
"6X c #F4FEFB",
"7X c #FFFBFA",
"8X c #FAFEFB",
"9X c #FEFDFB",
"0X c #FFFBFF",
"qX c #FFFAFE",
"wX c #FBFFFF",
"eX c #FAFEFD",
"rX c #FEFFFD",
"tX c #FFFCFF",
"yX c #FFFEFF",
"uX c #FFFFFF",
"iX c #FDFEFD",
"pX c #FCFEFC",
"aX c #F5F4F5",
/* pixels */
"B f f f k 7 8 8 7 > w : N 2 1 m f k k k k 7 2 9 q : f M h 8 7 w 7 2 2 2 2 2 w M ",
"c < 1 2 2 < 3 3 ; 2 7 < 5 5 < , 5 5 h h 5 5 3 ; ; > h 5 X 3 ; = 2 2 2 2 2 2 2 2 ",
"l < 1 1 2 < < < < , < j $ S S t S u u u u u C C + u u t x h 1 0 1 1 1 1 1 1 2 2 ",
"B < 1 1 1 2 2 < < < ` C.H.L.L.L.J.D.F.F.F.D.J.J.U.L.D.D.B.` - & 1 2 2 2 2 2 2 2 ",
"l < : 1 : 1 2 < < @ 4.|.$X%X%X*X6X6X*X*X2X6X,X,X:X*X2X*X$X1.5 2 1 2 2 2 1 1 2 2 ",
"l < : 1 : 1 1 2 d y %.XX*X8XrXrX7X9XeXeXrX0X7X<X9XrX8X:X$X,.y < 2 2 2 2 2 2 2 2 ",
"l > : 1 1 1 1 2 d u >.$X6XrXqX1XrXrXeXrXrXrX0X9X8XeXeX5X&X>.h - 2 2 2 2 2 2 2 2 ",
"l > : 1 1 1 1 , k u *.$X8X7X0X0XrXrXrXrXrXrXrXrXrXeXeX5X&X$.h 2 1 2 2 2 1 1 2 2 ",
"M > 1 1 1 1 1 2 < u <.$X;X9X0X0XrX8X0XrX9X8X6X%XrX1XrX5X$X9.5 - 2 1 2 2 2 2 2 2 ",
"M 2 2 2 2 1 1 2 d u -.OX;X<X9XrXrXrXrX,X*X XQ. X:XrX1X6X$X-.O > > 1 2 2 2 2 2 2 ",
"M 2 < 2 > ; 2 2 k u -.OX;X9X8XrX<X9X<X:XT.P F G P.6X-X8X$X-.O 4 > 1 2 2 2 2 2 2 ",
"M 2 < 2 ; ; 2 2 < @ -.$X;X8X6XeX9X9X,X%X..i r Y O.%X8X8X$X-.6 ; > 2 2 2 2 2 2 2 ",
"M 2 < 2 ; ; 1 1 < @ -.$X;X,X6X5X<X9X>XOXK y g r ^  X6X8X$X;.6 ; > 2 2 2 2 2 2 2 ",
"M 2 < 2 ; ; 1 1 < y -.$X>XrXeXeX6X6X%X Xh.u k u z.%X8XrX$X;.5 > 2 2 2 2 2 2 2 2 ",
"M 2 ; > > ; 1 1 , y >.$X8XrX0X-X*X X$X$X/.j.#.f.}.>X0XrX%X<.< : 1 2 2 2 2 2 2 2 ",
"M 2 ; 2 > : 1 1 g z >.$X8XrX=X'.{  . .I ( E ~ ] OX+X9XrX%X1.d * 1 2 2 2 2 2 2 2 ",
"w > 1 1 2 2 1 1 2 y *.$X8X:X$X2.D F Y h < - 5 S a.%X@X,XOX-.< % 1 2 2 2 2 2 2 2 ",
"w > 1 1 < < 2 1 1 z 3.%X+X2XT.F / I.` < % 0 k + ! T.$X%X}.5.< 1 2 2 2 2 2 2 2 2 ",
"M 2 < < 5 3 2 : * d ..$X>XOX8.F x.!.S 5 1 1 ) &.a :.b.b.h.` < > 2 2 1 2 2 2 2 2 ",
"M > < 2 3 3 > : 1 d *.%X>X.X^ F (.v.+ . 2 5 l.U.L e J J Y y 5 ; 2 2 2 2 2 2 2 2 ",
"l > 1 1 2 1 : : 1 h $.$X%Xm.A i.].~ k , , U `.+Xd.2.2.3.<.U 6 ; < 2 2 2 2 2 2 2 ",
"l > , 1 1 1 : : < @ <.OX:X;X}.{.Z.@ , 1 k [ oX<X%X*X$XXX|.5.6 7 2 2 2 2 2 2 2 2 ",
"M > < 2 1 & & : . 4.s.OX>X@X@X+X+.z d , j V.@X#X,XeX6X*X$X-.. ; 2 2 2 2 2 2 2 2 ",
"M > < 2 1 & & : 6 u.*.N.^.OX%X~.F z T @ @ Y.oX<X9X-XrX6XOX;.5 > 2 2 2 2 2 2 2 2 ",
"l 3 < 2 1 : : ; E g.F a V Q 8.:.i u I.G Y +.OX>X2X5X5X6XOX-.5 : 1 1 1 2 2 2 2 2 ",
"l 3 < < 1 : > ; 6.w._ V s V s p i 7.|.=.u F ^.%X*X5X6X>X$X1.5 : 1 2 2 2 2 2 2 2 ",
"M 2 < < < ; > > . R j.W.A.p.^ D D b.OXK.F t a.$X6XrXrX>X%X1.@ 1 2 2 2 2 2 2 2 2 ",
"n 2 < < < ; > > < @ $.XX*X*XXX/.M.{.+XOXo.F ^ |.6X0X0X9X%X;.@ 2 2 2 2 2 2 2 2 2 ",
"M 2 1 1 1 : : : 2 j $.$X2X=X6X:X5X8X<X@XH.Z p S.5X1X1X9X+X;.6 2 2 2 2 2 2 2 2 2 ",
"M 2 1 1 1 : : : , y <.&XeXrX7X9X7X1X7X,XOXI p } %XrX7X9X$X-.j < 2 2 2 2 2 2 2 2 ",
"M > < 2 1 : : : k t >.$X*XrX9XrXrXrX7X,XOXz.V p E.5XrX8X$X-.j , 2 2 2 2 2 2 2 2 ",
"M > < < 2 : : : < t *.*X5XrXrX8XeX-XrX>X+X|.W a t.$X8X>X$X%.h < 2 2 2 2 2 2 2 2 ",
"l 8 3 . - 1 * * < u ,.$X6XeX6XeXeXeX=X6X:XOXp.D H [.8X+XOX-.o f 1 2 2 2 < < 2 2 ",
"l ; 3 7 2 : % 1 k t r.2XeXeXeX5X0XeXeX6X>X%XR.o.X.M.+X>X X%.5 - 2 2 2 2 2 2 2 2 ",
"M , < < , 2 f < t @._.,XaX1XrXrX0XrX9X,X+XOXn.O.e.|.%XOXf.S < 2 2 2 2 2 < 2 2 2 ",
"n 1 1 2 2 < , j #.{.%X+X9X9XrXrX<X9X@X:X X=.A ..{.$X|.y.F @ 7 - < 2 2 2 < < 2 2 ",
"n 2 , f k . x 0./.|.OX%X+X:X2X*X2X:X%X).( F @.].|.].| z d c ; - 2 2 2 2 2 2 2 2 ",
"M 2 - , < < T q.k.c.y.x.s.p.s.z.d.a.i.! y z g.y.f./ z g , , 2 : ; < 2 < < < 2 2 ",
"2 1 1 1 1 f < h u t t u u x y y u y Y h < , X u y k   m < - : 1 : 2 2 2 2 2 2 2 ",
"N : b b 1 b c h j v k c c f m c c k h f m n k k k f b g k 7 0 0 > 2 2 2 2 2 2 2 "
};
