/* XPM */
static char *_3ceb4e3756f44b99b942ffdfd21ea8a1lX8KY1pEfn07eho[] = {
/* columns rows colors chars-per-pixel */
"40 40 2 1 ",
"  c gainsboro",
". c white",
/* pixels */
". . . . . . . . . . . . . . . . . . . . ",
" . . . . . . . . . . . . . . . . . . . .",
". . . . . . . . . . . . . . . . . . . . ",
" . . . . . . . . . . . . . . . . . . . .",
". . . . . . . . . . . . . . . . . . . . ",
" . . . . . . . . . . . . . . . . . . . .",
". . . . . . . . . . . . . . . . . . . . ",
" . . . . . . . . . . . . . . . . . . . .",
". . . . . . . . . . . . . . . . . . . . ",
" . . . . . . . . . . . . . . . . . . . .",
". . . . . . . . . . . . . . . . . . . . ",
" . . . . . . . . . . . . . . . . . . . .",
". . . . . . . . . . . . . . . . . . . . ",
" . . . . . . . . . . . . . . . . . . . .",
". . . . . . . . . . . . . . . . . . . . ",
" . . . . . . . . . . . . . . . . . . . .",
". . . . . . . . . . . . . . . . . . . . ",
" . . . . . . . . . . . . . . . . . . . .",
". . . . . . . . . . . . . . . . . . . . ",
" . . . . . . . . . . . . . . . . . . . .",
". . . . . . . . . . . . . . . . . . . . ",
" . . . . . . . . . . . . . . . . . . . .",
". . . . . . . . . . . . . . . . . . . . ",
" . . . . . . . . . . . . . . . . . . . .",
". . . . . . . . . . . . . . . . . . . . ",
" . . . . . . . . . . . . . . . . . . . .",
". . . . . . . . . . . . . . . . . . . . ",
" . . . . . . . . . . . . . . . . . . . .",
". . . . . . . . . . . . . . . . . . . . ",
" . . . . . . . . . . . . . . . . . . . .",
". . . . . . . . . . . . . . . . . . . . ",
" . . . . . . . . . . . . . . . . . . . .",
". . . . . . . . . . . . . . . . . . . . ",
" . . . . . . . . . . . . . . . . . . . .",
". . . . . . . . . . . . . . . . . . . . ",
" . . . . . . . . . . . . . . . . . . . .",
". . . . . . . . . . . . . . . . . . . . ",
" . . . . . . . . . . . . . . . . . . . .",
". . . . . . . . . . . . . . . . . . . . ",
" . . . . . . . . . . . . . . . . . . . ."
};
