/* XPM */
static char *b54ec4d2202a4ca9f0d895263b21e8e250W2adAzgMWELqsb[] = {
/* columns rows colors chars-per-pixel */
"40 40 152 2 ",
"   c None",
".  c #2D2636",
"X  c #3E1C45",
"o  c #362540",
"O  c #3C2944",
"+  c #3F2D4B",
"@  c #402B40",
"#  c #492F44",
"$  c #452F4F",
"%  c #403247",
"&  c #4B324F",
"*  c #453352",
"=  c #4C3254",
"-  c #4B3B57",
";  c #4D365B",
":  c #4D3A5C",
">  c #583B52",
",  c #543C5C",
"<  c #5F385F",
"1  c #522860",
"2  c #553D65",
"3  c #573E6A",
"4  c #653F63",
"5  c #663C6A",
"6  c #6A3473",
"7  c #72367A",
"8  c #773A7D",
"9  c #554357",
"0  c #62415B",
"q  c #5B4163",
"w  c #5A406D",
"e  c #5F4F68",
"r  c #5F5069",
"t  c #644465",
"y  c #6A4764",
"u  c #664865",
"i  c #6F416D",
"p  c #614B6A",
"a  c #6D4B6A",
"s  c #7C4E6F",
"d  c #65546C",
"f  c #65586B",
"g  c #695F6D",
"h  c #6B4473",
"j  c #6A4B74",
"k  c #724577",
"l  c #675470",
"z  c #6C5C75",
"x  c #765577",
"c  c #7C5272",
"v  c #7F5877",
"b  c #7B567F",
"n  c #7F5B7E",
"m  c #73677C",
"M  c #776D7E",
"N  c #78687E",
"B  c #84557C",
"V  c #89607F",
"C  c #7C3C85",
"Z  c #7F4386",
"A  c #765883",
"S  c #7C5E89",
"D  c #756780",
"F  c #796881",
"G  c #7E7580",
"H  c #834687",
"J  c #875F86",
"K  c #8C5C81",
"L  c #914F9D",
"P  c #995995",
"I  c #99559A",
"U  c #86638C",
"Y  c #936387",
"T  c #926389",
"R  c #9B658C",
"E  c #946A8E",
"W  c #807583",
"Q  c #82768A",
"!  c #8C758F",
"~  c #857A8D",
"^  c #92768F",
"/  c #886992",
"(  c #9F6D92",
")  c #946B9A",
"_  c #9C6E99",
"`  c #887F90",
"'  c #9A7293",
"]  c #977A95",
"[  c #A46B94",
"{  c #A96C94",
"}  c #A46899",
"|  c #AB6F98",
" . c #A77097",
".. c #A4749C",
"X. c #AC739C",
"o. c #A9799D",
"O. c #B1759F",
"+. c #954FA0",
"@. c #9B55A2",
"#. c #A158A8",
"$. c #A277A0",
"%. c #A27FA6",
"&. c #AD7CA2",
"*. c #A97DA9",
"=. c #B277A1",
"-. c #B47CA5",
";. c #B67FA8",
":. c #AB60B2",
">. c #BE77C6",
",. c #898091",
"<. c #8B8198",
"1. c #958396",
"2. c #948598",
"3. c #93899D",
"4. c #9B8C9E",
"5. c #9F939E",
"6. c #958CA0",
"7. c #9F92A1",
"8. c #B080A7",
"9. c #B781A9",
"0. c #B984AC",
"q. c #B48AA8",
"w. c #B88FAE",
"e. c #A394A4",
"r. c #AD97AA",
"t. c #A69AAC",
"y. c #B486B3",
"u. c #BD8CB3",
"i. c #B984BF",
"p. c #B093B2",
"a. c #BF90B7",
"s. c #BD98B7",
"d. c #B491BA",
"f. c #BD94BB",
"g. c #BF98BE",
"h. c #B2A5B7",
"j. c #B6A9B8",
"k. c #BCA8B9",
"l. c #C090B7",
"z. c #C294BA",
"x. c #C499BF",
"c. c #C99ABE",
"v. c #BCB3C0",
"b. c #C59CC2",
"n. c #C99EC4",
"m. c #DA9FDB",
"M. c #C9A0C6",
"N. c #CAA2C8",
"B. c #C2B6C3",
"V. c #C9B1CA",
"C. c #DBB2DB",
"Z. c #ECAEF1",
/* pixels */
"                                                                                ",
"                                                                                ",
"                                                                                ",
"                                                                                ",
"                                                                                ",
"                                                                                ",
"                                                                                ",
"                                8 6 ,                                           ",
"                          7 X Z I h F                                           ",
"                      L #.P 5 k R p 2.                                          ",
"                    +.:.} X.Y q B l e.                                          ",
"                  C @.}  .T ' p , z B.W                                         ",
"                  C i K R z 3.6.r m v.G                                         ",
"                C H i < 4 p <.j.f z W                                           ",
"                1 ; - - * - z g 5.t.e.v R  ...                                  ",
"                d D Q ~ ,.` e M h.t.^  .=.=.=.E                                 ",
"                  f 1.r.k.j.N 7.4.3.! E ..X.=. .c                               ",
"                          9 4 Y ( w.V.d.f.o.O.=.-.V                             ",
"                          # R =.=.z.C.Z.m.q.X.X.X.0.'                           ",
"                          s { X.=.&.p.i.>.c.X.X.| -.y.E                         ",
"                          y R { X.X.' ] %.s. .=.X.u.g.*.n                       ",
"                          . u Y X.;.9.&.' ' ( 9.0.a.z.-._ u                     ",
"                            . a { ;.9.9.9.-.-.x.;.u.u.b.X.T x                   ",
"                              % Y =.9.9.9.;.z.n.;.u.l.x.&...) q                 ",
"                                t  .;.9.;.9.n.z.z.a.x.z.z.$.j :                 ",
"                                  K -.9.;.0.u.-.u.z.x.N.d.A w 2                 ",
"                                  0  .;.;.0.u.z.l.z.M.g.S 3 ;                   ",
"                                    K -.;.l.n.z.b.0.f./ 2 *                     ",
"                                    > [ 0.M.M.u.x.8.U 2 +                       ",
"                                      a X.a.x.a.o.b 2 O                         ",
"                                      @ c { [ J j ,                             ",
"                                        & t t = O                               ",
"                                        o * $                                   ",
"                                                                                ",
"                                                                                ",
"                                                                                ",
"                                                                                ",
"                                                                                ",
"                                                                                ",
"                                                                                "
};
