/* XPM */
static char *_b6f4020ca02478e8bc16d9c274b7fdfYvG6z6O0K08oqpWq[] = {
/* columns rows colors chars-per-pixel */
"40 40 142 2 ",
"   c #252525",
".  c gray15",
"X  c #282828",
"o  c gray16",
"O  c #2A2A2A",
"+  c gray17",
"@  c #2C2C2C",
"#  c #2D2D2D",
"$  c #2F2F2F",
"%  c gray19",
"&  c #313131",
"*  c #323232",
"=  c gray20",
"-  c #343434",
";  c gray21",
":  c #373737",
">  c gray22",
",  c #393939",
"<  c #3A3A3A",
"1  c gray24",
"2  c #3E3E3E",
"3  c #3F3F3F",
"4  c gray25",
"5  c #414141",
"6  c gray26",
"7  c gray28",
"8  c #484848",
"9  c #4B4B4B",
"0  c #4C4C4C",
"q  c gray31",
"w  c #555555",
"e  c #585858",
"r  c #5A5A5A",
"t  c #5B5B5B",
"y  c gray36",
"u  c gray37",
"i  c #5F5F5F",
"p  c gray38",
"a  c #626262",
"s  c gray39",
"d  c #646464",
"f  c #656565",
"g  c gray40",
"h  c #686868",
"j  c #6A6A6A",
"k  c gray42",
"l  c #6C6C6C",
"z  c #6F6F6F",
"x  c gray44",
"c  c #717171",
"v  c #727272",
"b  c gray45",
"n  c #747474",
"m  c #767676",
"M  c #777777",
"N  c gray47",
"B  c #797979",
"V  c gray48",
"C  c #7E7E7E",
"Z  c gray50",
"A  c #808080",
"S  c #818181",
"D  c gray51",
"F  c #848484",
"G  c gray52",
"H  c gray53",
"J  c #888888",
"K  c #898989",
"L  c #8B8B8B",
"P  c gray55",
"I  c #8D8D8D",
"U  c gray56",
"Y  c #929292",
"T  c gray58",
"R  c gray60",
"E  c #9A9A9A",
"W  c gray61",
"Q  c #9D9D9D",
"!  c gray62",
"~  c gray63",
"^  c #A2A2A2",
"/  c gray64",
"(  c #A4A4A4",
")  c gray66",
"_  c #A9A9A9",
"`  c #AAAAAA",
"'  c gray67",
"]  c #ACACAC",
"[  c gray68",
"{  c #AFAFAF",
"}  c gray69",
"|  c #B1B1B1",
" . c #B4B4B4",
".. c #B6B6B6",
"X. c #B9B9B9",
"o. c gray73",
"O. c gray74",
"+. c gray",
"@. c #C0C0C0",
"#. c #C1C1C1",
"$. c gray77",
"%. c #C5C5C5",
"&. c #C6C6C6",
"*. c gray78",
"=. c #C8C8C8",
"-. c #CBCBCB",
";. c gray80",
":. c #CDCDCD",
">. c gray81",
",. c #D0D0D0",
"<. c #D2D2D2",
"1. c LightGray",
"2. c gray83",
"3. c gray84",
"4. c #D7D7D7",
"5. c #DADADA",
"6. c gray87",
"7. c #E1E1E1",
"8. c #E2E2E2",
"9. c gray89",
"0. c #E4E4E4",
"q. c gray90",
"w. c #E7E7E7",
"e. c #E9E9E9",
"r. c #EAEAEA",
"t. c gray92",
"y. c #ECECEC",
"u. c #EEEEEE",
"i. c #EFEFEF",
"p. c #F1F1F1",
"a. c gray95",
"s. c #F3F3F3",
"d. c gray96",
"f. c #F6F6F6",
"g. c gray97",
"h. c #F8F8F8",
"j. c #F9F9F9",
"k. c gray98",
"l. c #FCFBFC",
"z. c #FDFDFD",
"x. c #FEFEFE",
"c. c white",
/* pixels */
"z.z.z.z.z.z.z.z.z.z.z.z.z.z.z.z.z.z.z.z.z.z.z.z.z.z.z.z.z.z.z.z.z.z.z.z.z.z.z.z.",
"z.z.z.z.z.z.z.z.z.z.z.z.z.z.z.z.z.z.z.z.z.z.z.z.z.z.z.z.z.z.z.z.z.z.z.z.z.z.z.z.",
"z.z.z.z.z.z.z.z.z.z.z.z.z.z.z.z.z.z.z.z.z.z.z.z.z.z.z.z.z.z.z.z.z.z.z.z.z.z.z.z.",
"z.z.z.z.z.z.z.z.z.z.z.z.z.z.z.z.z.z.z.z.z.z.l.z.z.z.z.z.z.z.z.z.z.z.z.z.z.z.z.z.",
"z.z.z.z.z.z.z.z.z.z.z.z.k.l.7.z.z.z.z.z.z.z.l.z.g.0.z.z.z.z.z.z.z.z.z.z.z.z.z.z.",
"z.z.z.z.z.z.z.z.z.z.z.z.z.k.0...z.z.z.z.z.l.z.z.{ u.z.z.z.z.z.z.z.z.z.z.z.z.z.z.",
"z.z.z.z.z.z.z.z.z.z.z.z.z.z.z.{ z.z.z.l.l.z.l.g.( z.z.a.z.z.z.z.z.z.z.z.z.z.z.z.",
"z.z.z.z.z.z.z.z.z.z.z.z.k.z.z.{ z.z.z.z.z.z.g.0.O.z.k.l.z.z.z.z.z.z.z.z.z.z.z.z.",
"z.z.z.z.z.z.z.z.z.z.z.z.l.l.g.7.%.l.X.7.1.1.l...g.z.l.z.z.z.z.z.z.z.z.z.z.z.z.z.",
"z.z.z.z.z.z.z.z.z.z.z.z.z.g.z.z.^ a.x O.-.g g.W k.z.z.z.z.z.z.z.z.z.z.z.z.z.z.z.",
"z.z.z.z.z.z.z.z.z.z.z.z.k.^ z.k.' #.p 5 7 u %.#.z.k.U k.z.z.z.z.z.z.z.z.z.z.z.z.",
"z.z.z.z.z.z.z.z.z.z.z.z.l.X.W k.l.0 # % # # r z.l.G ;.z.z.z.z.z.z.z.z.z.z.z.z.z.",
"z.z.z.z.z.z.z.z.z.z.z.z.z.z.x k.1.# # % + + % 0.k.n k.z.z.z.z.z.z.z.z.z.z.z.z.z.",
"z.z.z.z.z.z.z.z.z.z.z.z.z.z.g z.' # % % % # + %.k.x z.z.z.z.z.z.z.z.z.z.z.z.z.z.",
"z.z.z.z.z.z.z.z.z.z.z.z.z.z.z k.%.% + + % # - 4.e.Z z.z.z.z.z.z.z.z.z.z.z.z.z.z.",
"z.z.z.z.z.z.z.z.z.z.z.z.k.l.G e.z.K % # % % W k.1.R k.z.z.z.z.z.z.z.z.z.z.z.z.z.",
"z.z.z.z.z.z.z.z.z.z.z.z.z.z.{ % U W   % # % { B - %.z.l.z.z.z.z.z.z.z.z.z.z.z.z.",
"z.z.z.z.z.z.z.z.z.z.z.z.z.z.z.;.x 5 > % # + 7 U 1.g.k.z.z.z.z.z.z.z.z.z.z.z.z.z.",
"z.z.z.z.z.z.z.z.z.z.z.z.z.z.k.z.k.' 1 # % > } l.g.z.z.k.z.z.z.z.z.z.z.z.z.z.z.z.",
"z.z.z.z.z.z.z.z.z.z.z.z.l.z.U p x 1 > % - % 5 n r W z.z.z.z.z.z.z.z.z.z.z.z.z.z.",
"z.z.z.z.z.z.z.z.z.z.z.k.k.X.x K U - % - % - 8 G Z z 4.z.z.z.z.z.z.z.z.z.z.z.z.z.",
"z.z.z.z.z.z.z.z.z.z.z.z.u.u z.z...- % > + % % -.l.k.r l.z.z.z.z.z.z.z.z.z.z.z.z.",
"z.z.z.z.z.z.z.z.z.z.z.k.D O.z.u.k % > # # % % G u.z.^ R z.z.z.z.z.z.z.z.z.z.z.z.",
"z.z.z.z.z.z.z.z.k.z.k.5.p u.K - 0 1 # # + > # w 1 T a.p 0.z.z.z.z.z.z.z.z.z.z.z.",
"z.z.z.z.z.z.z.z.z.7.x W 0.U 7 ..k - % - # > + B ' 5 ^ 6.^ Z e.k.z.z.z.z.z.z.z.z.",
"z.z.z.z.z.z.z.z.z.u.g.z.z...} z.x - + % - - % U z.W -.z.z.z.l.z.z.z.z.z.z.z.z.z.",
"z.z.z.z.z.z.z.z.z.z.z.z.z.g.u g.u % + # % # - n g.p z.z.k.z.z.g.z.z.z.z.z.z.z.z.",
"z.z.z.z.z.z.z.z.k.z.z.z.z.z.B ;.> # % # % - - 0 X.K k.z.z.z.a.z.z.z.z.z.z.z.z.z.",
"z.z.z.z.z.z.z.z.z.z.z.z.z.z.4.B k - % #   - - D g 0.z.z.z.z.z.z.z.z.z.z.z.z.z.z.",
"z.z.z.z.z.z.z.z.z.z.z.z.l.z.;.U #.# - - - # + ;.D 0.z.k.z.z.z.z.z.z.z.z.z.z.z.z.",
"z.z.z.z.z.z.z.z.z.z.z.z.z.k.x g.O.- % # # + > 1.u.G z.z.z.z.z.z.z.z.z.z.z.z.z.z.",
"z.z.z.z.z.z.z.z.z.z.z.z.a.5.^ z.a.w 5 > % - z z.z.W 0.z.z.z.z.z.z.z.z.z.z.z.z.z.",
"z.z.z.z.z.z.z.z.z.z.z.z.z.z.z.z.z.Y + % - + ' k.l.l.z.z.z.z.z.z.z.z.z.z.z.z.z.z.",
"z.z.z.z.z.z.z.z.z.z.z.z.z.z.z.z.z.u.8 - # u g.z.z.z.z.z.z.z.z.z.z.z.z.z.z.z.z.z.",
"z.z.z.z.z.z.z.z.z.z.z.z.z.z.z.z.z.l.7.> 5 a.z.l.z.z.z.z.z.z.z.z.z.z.z.z.z.z.z.z.",
"z.z.z.z.z.z.z.z.z.z.z.z.z.z.z.z.k.z.l.1.7.z.z.z.z.z.z.z.z.z.z.z.z.z.z.z.z.z.z.z.",
"z.z.z.z.z.z.z.z.z.z.z.z.z.z.z.z.z.z.z.z.z.z.z.z.z.z.z.z.z.z.z.z.z.z.z.z.z.z.z.z.",
"z.z.z.z.z.z.z.z.z.z.z.z.z.z.z.z.z.z.z.z.z.z.z.z.z.z.z.z.z.z.z.z.z.z.z.z.z.z.z.z.",
"z.z.z.z.z.z.z.z.z.z.z.z.z.z.z.z.z.z.z.z.z.z.z.z.z.z.z.z.z.z.z.z.z.z.z.z.z.z.z.z.",
"z.z.z.z.z.z.z.z.z.z.z.z.z.z.z.z.z.z.z.z.z.z.z.z.z.z.z.z.z.z.z.z.z.z.z.z.z.z.z.z."
};
