/* XPM */
static char *_f9b6b1be6084470b19eee1edf2d4dc867c9Bo3eh2dXBJB6[] = {
/* columns rows colors chars-per-pixel */
"40 40 195 2 ",
"   c #696257",
".  c #6B635A",
"X  c #6F6761",
"o  c #706862",
"O  c #726963",
"+  c #736B64",
"@  c #746C65",
"#  c #756D67",
"$  c #766E68",
"%  c #776F69",
"&  c #7A7269",
"*  c #79706A",
"=  c #7B736A",
"-  c #7A726B",
";  c #7C746C",
":  c #7C746E",
">  c #7D756F",
",  c #7E776E",
"<  c #7E7670",
"1  c #7F7771",
"2  c #817972",
"3  c #837B72",
"4  c #827A73",
"5  c #837B75",
"6  c #847C74",
"7  c #847C76",
"8  c #857D77",
"9  c #867E78",
"0  c #898178",
"q  c #888079",
"w  c #8A8279",
"e  c #89817A",
"r  c #8A827C",
"t  c #8B837D",
"y  c #8C857C",
"u  c #8C847E",
"i  c #8D857F",
"p  c #8F877E",
"a  c #8F8780",
"s  c #908881",
"d  c #928B80",
"f  c #918982",
"g  c #928A82",
"h  c #938C83",
"j  c #968E83",
"k  c #928A84",
"l  c #938B85",
"z  c #948D84",
"x  c #968E85",
"c  c #948C86",
"v  c #978F86",
"b  c #968E87",
"n  c #978F88",
"m  c #989185",
"M  c #989087",
"N  c #989089",
"B  c #999189",
"V  c #99918B",
"C  c #9A938A",
"Z  c #9B9489",
"A  c #9B948B",
"S  c #9D958A",
"D  c #9A928C",
"F  c #9B938D",
"G  c #9D958C",
"H  c #9E968D",
"J  c #9D958E",
"K  c #9F978E",
"L  c #9E968F",
"P  c #9F9790",
"I  c #A19A8F",
"U  c #A09890",
"Y  c #A19A91",
"T  c #A09892",
"R  c #A19993",
"E  c #A29B92",
"W  c #A49C93",
"Q  c #A29A94",
"!  c #A49B95",
"~  c #A59D94",
"^  c #A69E95",
"/  c #A59D96",
"(  c #A69E97",
")  c #A79F97",
"_  c #A79F99",
"`  c #A7A095",
"'  c #A8A198",
"]  c #A9A299",
"[  c #A8A09A",
"{  c #A9A19B",
"}  c #ABA39A",
"|  c #ABA29C",
" . c #ADA59C",
".. c #ACA49D",
"X. c #AEA79C",
"o. c #ADA59E",
"O. c #AEA69E",
"+. c #AFA89D",
"@. c #AFA89F",
"#. c #AEA6A0",
"$. c #AFA7A1",
"%. c #B2AAA1",
"&. c #B0A8A2",
"*. c #B2A9A3",
"=. c #B3ABA2",
"-. c #B4ACA3",
";. c #B3ABA4",
":. c #B4ACA5",
">. c #B5ADA5",
",. c #B5ADA7",
"<. c #B6AFA6",
"1. c #B6AEA8",
"2. c #B7AFA9",
"3. c #B7B0A7",
"4. c #BAB2A7",
"5. c #B9B0AA",
"6. c #BBB3AA",
"7. c #BAB2AB",
"8. c #BBB4A8",
"9. c #BBB3AC",
"0. c #BCB4AC",
"q. c #BDB5AD",
"w. c #BCB4AE",
"e. c #BDB5AF",
"r. c #BEB7AE",
"t. c #BEB6B0",
"y. c #C0B8AF",
"u. c #C0B7B1",
"i. c #C1B9B0",
"p. c #C2BAB1",
"a. c #C1B9B2",
"s. c #C2BAB3",
"d. c #C3BBB3",
"f. c #C3BBB5",
"g. c #C4BCB4",
"h. c #C5BEB5",
"j. c #C4BCB6",
"k. c #C5BDB7",
"l. c #C7BFB6",
"z. c #C7BEB8",
"x. c #C8C0B7",
"c. c #C9C1B8",
"v. c #C8C0B9",
"b. c #C9C1BA",
"n. c #CAC2BA",
"m. c #CBC3BB",
"M. c #CCC5BA",
"N. c #CAC2BC",
"B. c #CBC3BD",
"V. c #CCC5BC",
"C. c #CEC6BD",
"Z. c #CCC4BE",
"A. c #CEC5BF",
"S. c #CFC7BE",
"D. c #D0C8BF",
"F. c #CFC7C0",
"G. c #D0C8C1",
"H. c #D1C9C1",
"J. c #D1C9C3",
"K. c #D2CAC2",
"L. c #D3CCC3",
"P. c #D2CAC4",
"I. c #D3CBC5",
"U. c #D4CDC4",
"Y. c #D6CEC5",
"T. c #D4CCC6",
"R. c #D7CFC6",
"E. c #D6CEC7",
"W. c #D7CFC8",
"Q. c #D7D0C4",
"!. c #D8D0C7",
"~. c #D9D1C9",
"^. c #DAD3C8",
"/. c #D8D0CA",
"(. c #D9D1CB",
"). c #DAD3CA",
"_. c #DAD2CC",
"`. c #DBD3CD",
"'. c #DDD5CC",
"]. c #DED6CD",
"[. c #DDD5CE",
"{. c #DFD7CE",
"}. c #DED6CF",
"|. c #DFD7D0",
" X c #E0D8D2",
".X c #E1D9D3",
"XX c #E2DBD2",
"oX c #E4DCD3",
"OX c #E2DAD4",
"+X c #E5DDD4",
"@X c #E4DCD5",
"#X c #E5DDD6",
"$X c #E6DED7",
"%X c #E7DFD9",
"&X c #E8E0DA",
/* pixels */
"X J _ T ( Q | J i N T P J _ ( _ N : { ( ( ( o.&._ | : D N ( { J _ Q Q # o.! | ( ",
"b j.W._.[.T.T.I.7.9.b.T.I.I.W.b.I.N Z.T.G.W.@XG.[.b.( T.G.T.T._.T.F.z.T F.G.|._.",
"e | 1.9.o.:.:.1.J J ( &.a._ w.#.:.5 o.&.&.#.#.o.:.Q r &.o.;.Q { o.| T i o.#.1.{ ",
"{ 9.:.&.a :.7.1.w.a.a.7.9.9 #.:.&.| 9.&.u._ f w.a.B.9.a.t.Z.o.T j.b.j.a.B.j.7.N ",
"@X/.W.B.J b.@XF._.I.W.F.Z.Q F./.z.[.T.F.T.a.f /._._.@XT._._.a._ T.W.OXOX|.W.W.! ",
"k n D N * f ! N D n Q P n * f k b 9 k J b f # N ! T b J o.! k r T Q ( b P T o.r ",
"! I./.T.F.B.I.I.1.9.G.T._.I.W.T.T.T Z./.G.F.I.G.G.b.J B.I.I.Z.Z.F.T.b.T G.F./.G.",
"r [._.G.OXB.Z.T.#.7.T..XG.[./._.W.b T./._.G.%X/.T.B.i I.B._.[.T.W.[.b.f W.[.B./.",
"7 n n D a D N r f i b k ( e P D D * b D k T e P N b 2 n J D N b n f J < P J D i ",
"G.[.T.W.{ b.W.[.[._.@X.XT.! I.I.|.T./.T.B.Z.J b.T.I.G.F.T.b.1.o._.I.[.T.W.I.B.Q ",
"_..XI.Z.T b.I.|._.W..X[.T.( I.I./.I./.Z.T.Z.N B.I.G.Z.B.Z.a.&.( I.G.T.I.W.Z.Z.P ",
"2 b N T 2 ! b D f i n k D : b f f : N a D k + k k f : k b k f i i n i < J i T 5 ",
"f F./.|._.T.B.T.:.1._.[./.W././.B.J B.G.[.|.I.[.W._.T G.G.T.[..X/.T.I.! I.G.[.W.",
"N z.I._.I./.G.G.&.:.I./.T.T._./.F.N b.B.T._.T.[.G.I.J G././.W.T./.I./.T Z.b.T.F.",
"i n b k < n N b N n N b T : N i Q 5 J J J n # i b b : k P b r 2 J b P 2 J D J 7 ",
"|./././.D j.W.I.W.W.G.I.T.i _.W.G./.T.G.I.Z.k /.T.I..XB.I.j.&.Q W.T.T.&XT.|.I.N ",
"Z.b.b.b.f u.B.a.j.j.b.u.u.N b.B.F.B.b.B.j.b.f w.Z.b.j.F.b.t.#.( b.a.B.B.j.j.G.N ",
"% T J ( N ( P J 2 i D D N k J N b O b J ( o.D { T D % ( ( ! T J P P n # b D T N ",
"a I.Z.I.|./.B.I.{ 1.Z.G.G.OX/.G.b.b Z.G.G.I.T.I.G.b.i _./._.[..XT.[.F.D T.T.T.OX",
"2 :.;.#.&.:.o.1.n ! 7.9.o.7.1.;.o.2 &.o.7.1.&.1.1.7.e 9.7.7.w.w.#.9.:.e u.:.:.#.",
"&.:.7.7.i w.7.:.w.:.7.:.7.i :.9.f.7.w.u.:.7.9 #.1.7.:.w.9.1.| D t.7.9.:.#.:.w.i ",
"OXG.W.F.b Z.I.G.|././.I.F.T G._.I.T././.I.T.T T.W././._.G.Z.t.o./.W..X.X/.T._.D ",
"b J J N # N N P D N T P b : N J J f _ ! b k # N D D e ( n n f 5 b D J i J b N X ",
"f W.I.I.[.[.B._.:.9.F.T.Z./.Z.B.F.J I.F._.T.T.W.B.B.J .XI._..X[.F.[.Z.N I.G.G.T.",
"i B..XI..XW._.@X7.1.I.I.Z.[.Z.T.T.b I.T.G.F.OXI./.T.N T.T.[..X|.[.I.T.b _.Z./.|.",
"5 J J b r ( b D i r J D J 5 n J b 2 D J N N 9 Q k D 2 D k N b r D b b 7 J T ( f ",
"/._.G.F.n I.Z._.T.I.T.T.F.b z.B.j.F.B.F.b.b.N I.Z./.I./.Z.G.f.{ G.G.G._.Z.T.Z.( ",
"I.[./.W.N B.G./././.F.G.b.k B.B.G.W.Z.T.b.B.n Z.W.[.G./.G.T.t.D T.[._.[._._.B.P ",
"< ( n ( 7 J D b i a N D f : k N n : b ! J P e k f n # ( b b k f T D D < A S M i ",
"b G./.@X.X|._.T.#.7.Z./.W.W.W.W.B.T Z._.W._._.W.W.Z.N |./._.[.[..XW.I.T D.L.[./.",
"J F._.[.Z./._..X:.w.Z.T.T.T.T.T.B.( Z.I.I.G.G.I.I.b.J W././.W.T._.T.Z.( G.Z.Q.b.",
"i T J b # J r N b f f a b 2 N J P a J b T k : n f N r D J n i 7 b n f 5 b f J : ",
"OXI.I.T.e T.@XW..X_./.T.L.i T.T.U..X/./.Z.G.M )./.Z.L.T./.G.7.T !.L./.@XZ.Z.S.f ",
"j.G.Z.a.D a.Z.G.B.b.B.B.a.J a.x.b.x.D.a.D.j.N M.D.D.j.Z.Z.j.3.( x.x.x.d.b.Z.b.( ",
"+ D P b D J Q { i f D P N b M M J * W J { T f T J N : N ( J N N J T b : T { T J ",
"i j.G._..XW./.T.{ &.u.b.Z.T.G.a.x.7 Z.).b.Q.oXG.T.a.b D.!.G.T.[.Z.T.a.J Z.[.D..X",
"< #.#.:.( ! &.o.n N ! _ 3.N &.o.o.7 ( :.( w.{ -.3.} 2 :.:.&.@.o.&.{ o.e I +.+.` ",
":.u.:.7.e _ w.7.#.&.7.9.:.7 &.-.w.w.a.3.y.w.i a.d.x.o.a.a.w.o.h :.3.j.-.4.8.o.f ",
".X_.G.I.N j.W.T.W.T././.Z.J b.Z.G..X/.j.!.Z.i L.[.oX[.[.[.!.d.` G.T.{.[.).Q.M.S ",
"k n D b O k b b N n N b M = h i N N J b A A . J A v T J J b e 2 J N h f h M A   "
};
